<?xml version="1.0" standalone="no"?>
<!DOCTYPE svg PUBLIC "-//W3C//DTD SVG 20010904//EN"
 "http://www.w3.org/TR/2001/REC-SVG-20010904/DTD/svg10.dtd">
<svg version="1.0" xmlns="http://www.w3.org/2000/svg"
 width="299.000000pt" height="168.000000pt" viewBox="0 0 299.000000 168.000000"
 preserveAspectRatio="xMidYMid meet">

<g transform="translate(0.000000,168.000000) scale(0.100000,-0.100000)"
fill="#000000" stroke="none">
<path d="M1073 1610 c-57 -23 -78 -155 -47 -298 l18 -87 8 69 c11 111 29 206
38 201 5 -3 14 -38 20 -78 20 -116 96 -194 218 -225 39 -10 77 -24 85 -31 14
-11 19 -6 40 36 l25 48 -62 0 c-118 0 -182 62 -256 251 -43 110 -55 126 -87
114z"/>
<path d="M1014 1585 c-3 -14 -10 -23 -14 -20 -20 13 -118 -147 -136 -220 l-7
-30 36 40 c22 23 50 74 68 122 35 89 51 105 26 26 -33 -101 -41 -170 -40 -333
1 -143 4 -178 26 -260 14 -52 36 -120 50 -150 l25 -55 1 36 c1 20 -9 71 -20
115 -18 67 -22 115 -26 319 -6 314 -6 331 17 383 23 51 23 52 10 52 -5 0 -12
-11 -16 -25z"/>
<path d="M1892 1598 c-5 -7 -27 -53 -48 -102 -58 -137 -104 -200 -169 -231
-42 -21 -66 -26 -105 -23 -27 1 -50 -1 -50 -5 0 -4 9 -26 21 -48 18 -37 22
-39 37 -27 9 8 46 20 82 27 82 16 124 42 201 128 9 10 20 38 24 63 9 59 27
121 33 115 3 -3 13 -64 22 -137 l17 -133 16 72 c17 73 22 176 11 232 -7 34
-46 81 -67 81 -8 0 -19 -6 -25 -12z"/>
<path d="M1982 1567 c25 -49 26 -80 10 -417 -8 -168 -15 -243 -30 -295 -25
-88 -36 -158 -23 -151 18 12 74 163 92 251 24 113 26 376 5 475 -8 36 -17 79
-20 95 -4 17 4 3 17 -30 39 -97 45 -108 78 -145 l31 -35 -6 30 c-15 67 -107
222 -126 210 -4 -3 -11 6 -14 19 -3 13 -13 26 -21 30 -12 4 -10 -4 7 -37z"/>
<path d="M1073 1387 c-6 -45 -6 -82 0 -99 19 -59 43 -15 32 60 -3 27 -8 60 -9
75 -6 49 -12 38 -23 -36z"/>
<path d="M1907 1410 c-4 -25 -13 -59 -19 -76 -8 -24 -7 -36 4 -59 l15 -29 13
24 c14 25 14 77 1 145 l-7 40 -7 -45z"/>
<path d="M1402 1369 c-12 -25 -34 -57 -49 -70 l-26 -24 22 31 c16 22 21 41 19
65 -3 28 -5 31 -12 14 -4 -11 -16 -39 -26 -61 l-18 -41 23 -13 c29 -15 37 -10
74 44 24 35 29 49 22 72 l-7 28 -22 -45z"/>
<path d="M1567 1395 c-14 -49 -18 -87 -12 -115 5 -23 12 -30 31 -30 l25 0 -27
45 c-32 56 -26 59 10 5 27 -41 55 -51 74 -27 8 10 5 28 -12 71 -16 40 -25 52
-30 41 -11 -30 -6 -49 21 -77 15 -15 22 -28 15 -28 -15 0 -56 56 -74 100 -13
30 -16 32 -21 15z"/>
<path d="M917 1323 c-46 -167 -48 -361 -6 -513 l24 -85 9 64 c6 43 5 118 -4
232 -7 99 -10 207 -6 264 4 52 5 95 3 95 -2 0 -11 -26 -20 -57z"/>
<path d="M2067 1295 c3 -49 0 -139 -7 -200 -17 -165 -24 -404 -10 -382 21 32
59 206 66 294 7 100 -7 234 -35 320 l-19 58 5 -90z"/>
<path d="M1408 1295 l-28 -45 24 0 c18 0 27 8 35 31 25 71 8 78 -31 14z"/>
<path d="M890 1311 c0 -7 -4 -10 -9 -7 -5 3 -14 -1 -21 -9 -7 -8 -16 -12 -21
-9 -5 3 -9 2 -9 -3 0 -4 -4 -25 -9 -46 -8 -34 -7 -36 6 -25 9 7 24 31 35 53
20 43 18 32 -13 -85 -17 -68 -45 -298 -36 -307 7 -6 57 220 57 257 1 19 7 69
14 110 8 41 12 77 10 79 -2 2 -4 -1 -4 -8z"/>
<path d="M1120 1291 c0 -11 -4 -23 -10 -26 -14 -9 -12 -38 4 -60 13 -19 15
-18 32 18 15 32 16 40 4 62 -16 30 -30 33 -30 6z"/>
<path d="M1828 1264 c-41 -45 -47 -73 -22 -99 15 -15 18 -15 32 -1 13 12 13
20 4 41 -7 14 -12 34 -11 43 0 9 5 1 12 -18 7 -19 19 -35 27 -35 20 0 24 45 8
82 l-13 29 -37 -42z"/>
<path d="M2115 1255 c3 -22 10 -85 15 -140 6 -55 19 -136 30 -180 l20 -80 -5
120 c-5 127 -23 227 -49 285 l-16 35 5 -40z"/>
<path d="M2142 1256 c13 -40 55 -88 45 -51 -3 11 -8 33 -12 49 -3 15 -9 26
-12 22 -3 -3 -12 -1 -19 5 -10 8 -10 3 -2 -25z"/>
<path d="M1057 1230 c-6 -48 0 -120 15 -175 6 -22 10 -65 9 -95 -4 -76 16
-174 44 -229 28 -54 30 -44 10 64 -8 44 -14 111 -15 149 0 54 -3 66 -12 58
-10 -8 -12 11 -7 91 4 72 1 111 -8 134 -19 47 -30 48 -36 3z"/>
<path d="M1158 1225 c-13 -29 -13 -38 -2 -52 11 -16 14 -16 28 -3 17 18 22 48
11 73 -11 25 -19 21 -37 -18z"/>
<path d="M1911 1243 c-11 -12 -15 -46 -15 -129 -1 -62 2 -110 6 -108 17 11 38
112 38 181 0 75 -5 84 -29 56z"/>
<path d="M1017 1237 c-19 -49 0 -308 27 -384 15 -38 15 -37 17 57 3 116 3 111
-10 185 -6 33 -14 83 -19 110 -5 36 -10 45 -15 32z"/>
<path d="M1966 1218 c-4 -18 -11 -61 -15 -94 -4 -34 -11 -66 -15 -72 -9 -15
-15 -245 -6 -235 25 26 42 128 47 276 6 153 2 190 -11 125z"/>
<path d="M1202 1179 c-9 -30 -10 -45 -2 -53 16 -16 42 16 43 55 3 51 -25 50
-41 -2z"/>
<path d="M1753 1209 c-7 -7 -8 -23 -3 -46 10 -44 26 -61 41 -46 9 9 8 23 -2
57 -14 48 -18 53 -36 35z"/>
<path d="M1256 1176 c-9 -32 -7 -74 3 -80 13 -9 31 18 38 57 4 28 2 35 -15 39
-15 4 -22 0 -26 -16z"/>
<path d="M1690 1171 c0 -26 21 -81 31 -81 15 0 27 35 22 68 -4 26 -10 32 -29
32 -17 0 -24 -6 -24 -19z"/>
<path d="M1117 1173 c-11 -10 -8 -122 3 -143 6 -10 12 -45 14 -77 4 -53 36
-156 54 -175 12 -12 0 144 -13 181 -12 31 -14 32 -14 11 -1 -13 -5 -20 -9 -15
-5 6 -6 51 -2 100 6 98 -7 145 -33 118z"/>
<path d="M1306 1139 c-7 -44 -2 -59 19 -59 32 0 49 83 19 94 -27 10 -31 7 -38
-35z"/>
<path d="M1647 1169 c-9 -5 -21 -7 -27 -4 -9 6 -50 -29 -50 -42 0 -5 4 -14 9
-22 13 -20 41 3 42 33 1 17 2 16 9 -7 12 -40 29 -57 48 -50 14 6 15 4 5 -8
-15 -19 -34 -99 -23 -99 5 0 20 14 34 31 28 33 34 74 12 82 -8 3 -18 26 -21
51 -8 49 -10 51 -38 35z"/>
<path d="M811 1143 c-14 -29 -28 -152 -18 -142 8 6 38 161 33 166 -1 2 -8 -9
-15 -24z"/>
<path d="M1370 1141 c0 -35 27 -62 41 -40 13 21 11 34 -9 52 -26 24 -32 21
-32 -12z"/>
<path d="M1851 1156 c-8 -9 -11 -49 -10 -111 1 -52 -1 -99 -5 -102 -3 -4 -6 5
-7 18 -2 52 -26 -35 -32 -116 -6 -73 -5 -78 8 -55 23 39 58 159 51 176 -3 8 0
27 8 42 19 38 28 98 21 133 -7 32 -17 36 -34 15z"/>
<path d="M2174 1145 c2 -11 8 -45 11 -75 4 -30 12 -62 17 -70 16 -26 0 108
-17 138 -11 18 -14 21 -11 7z"/>
<path d="M1163 1073 c3 -32 14 -80 25 -108 l20 -50 -2 95 c-1 71 -5 98 -16
107 -27 22 -33 14 -27 -44z"/>
<path d="M1803 1111 c-17 -15 -22 -26 -17 -48 3 -15 1 -56 -4 -90 -5 -35 -7
-63 -6 -63 2 0 13 21 25 48 18 40 40 173 28 172 -2 -1 -14 -9 -26 -19z"/>
<path d="M1227 1113 c-16 -15 -5 -83 20 -134 l28 -54 5 35 c4 21 1 43 -7 55
-7 11 -13 31 -13 45 -1 27 -23 64 -33 53z"/>
<path d="M1743 1088 c-21 -44 -35 -104 -31 -133 3 -29 4 -28 31 24 15 31 27
71 27 93 0 43 -11 49 -27 16z"/>
<path d="M1346 1079 c-16 -16 -17 -22 -6 -49 20 -49 34 -49 27 1 l-7 44 15
-32 c18 -42 25 -42 25 0 0 43 -27 61 -54 36z"/>
<path d="M1607 1082 c-16 -19 -29 -84 -14 -75 5 3 15 19 23 37 l14 31 -7 -44
c-7 -49 7 -50 27 -2 10 26 9 32 -8 49 -19 19 -21 19 -35 4z"/>
<path d="M1277 1083 c-21 -20 16 -103 45 -103 15 0 1 78 -17 96 -15 16 -19 17
-28 7z"/>
<path d="M852 970 c-7 -25 -15 -108 -17 -185 l-5 -140 20 80 c28 111 32 150
23 225 l-9 65 -12 -45z"/>
<path d="M1220 973 c6 -35 36 -103 44 -103 6 0 -34 124 -43 133 -5 5 -5 -9 -1
-30z"/>
<path d="M1870 953 c0 -43 -18 -170 -36 -253 -6 -24 -5 -24 15 5 12 17 28 53
36 80 17 55 32 214 20 203 -5 -4 -14 -3 -22 3 -11 9 -13 2 -13 -38z"/>
<path d="M1290 977 c0 -8 9 -25 19 -38 l19 -24 -5 27 c-6 32 -33 60 -33 35z"/>
<path d="M1682 978 c-5 -7 -13 -24 -16 -38 l-7 -25 20 24 c12 13 21 29 21 37
0 17 -5 18 -18 2z"/>
<path d="M1753 970 c-18 -44 -33 -94 -29 -98 9 -8 47 81 44 101 -4 21 -4 21
-15 -3z"/>
<path d="M2127 970 c-13 -37 -17 -143 -6 -182 6 -24 17 -74 25 -113 13 -69 13
-68 10 90 -4 151 -16 240 -29 205z"/>
<path d="M960 767 c0 -137 62 -279 172 -389 37 -38 72 -68 77 -68 5 0 -16 37
-47 83 -63 93 -113 196 -135 277 -9 30 -27 82 -41 115 l-26 60 0 -78z"/>
<path d="M1070 795 c-1 -11 -2 -41 0 -67 2 -49 -6 -58 -29 -35 -17 16 -8 -17
27 -96 23 -53 108 -147 132 -147 5 0 -11 37 -34 83 -47 89 -73 160 -86 235 -4
26 -9 38 -10 27z"/>
<path d="M1992 749 c-12 -25 -30 -70 -41 -100 -27 -79 -76 -174 -137 -261 -29
-43 -48 -78 -42 -78 5 0 43 33 82 73 111 111 177 256 166 362 l-5 51 -23 -47z"/>
<path d="M876 746 c-19 -45 -20 -108 -5 -192 11 -63 29 -95 29 -54 1 14 5 69
10 123 6 75 5 106 -5 130 l-13 31 -16 -38z"/>
<path d="M1892 712 c-13 -63 -70 -189 -108 -239 -33 -44 -17 -42 43 5 62 49
153 213 109 196 -13 -5 -16 3 -16 45 0 28 -4 51 -8 51 -4 0 -13 -26 -20 -58z"/>
<path d="M2082 737 c-13 -36 -14 -138 -3 -227 l7 -55 16 55 c21 70 32 178 20
193 -5 7 -13 25 -18 40 l-9 28 -13 -34z"/>
<path d="M930 640 c0 -38 8 -72 25 -109 25 -53 84 -136 91 -128 3 2 -16 55
-41 117 -25 61 -45 117 -45 124 0 7 -7 21 -15 32 -13 17 -14 15 -15 -36z"/>
<path d="M2043 668 c-5 -7 -18 -35 -28 -63 -10 -27 -36 -88 -57 -135 l-39 -85
41 40 c52 51 88 124 96 198 7 58 4 67 -13 45z"/>
<path d="M916 485 c-7 -36 -19 -44 -32 -23 -5 8 -13 -20 -20 -64 -7 -42 -19
-91 -27 -107 -17 -35 -12 -38 21 -15 38 26 65 92 70 172 5 76 -1 95 -12 37z"/>
<path d="M945 370 c0 -137 -9 -198 -41 -285 -7 -18 -5 -18 18 3 35 32 74 107
93 177 22 85 20 124 -9 154 -13 15 -32 42 -42 61 l-19 35 0 -145z"/>
<path d="M2051 449 c-1 -82 22 -151 61 -184 38 -32 45 -27 23 15 -9 18 -19 66
-22 107 -4 52 -9 70 -15 59 -15 -27 -26 -18 -36 27 -10 42 -10 42 -11 -24z"/>
<path d="M2016 465 c-10 -19 -29 -44 -42 -56 -48 -45 -26 -186 46 -298 23 -35
43 -62 44 -60 2 2 -4 36 -14 75 -25 98 -33 215 -21 299 5 38 9 70 8 72 -2 1
-11 -13 -21 -32z"/>
<path d="M1062 417 c8 -20 9 -30 1 -35 -7 -5 -9 -54 -4 -157 l6 -150 25 45
c20 37 25 63 28 145 l4 100 -36 40 c-33 36 -35 37 -24 12z"/>
<path d="M1884 389 c-28 -29 -29 -34 -29 -127 0 -82 4 -106 25 -152 l25 -55 6
135 c3 74 9 145 13 158 5 16 3 22 -8 22 -12 0 -14 5 -6 25 12 32 10 31 -26 -6z"/>
</g>
</svg>
